<?xml version="1.0" encoding="UTF-8" standalone="no"?>
<!-- Created with Inkscape (http://www.inkscape.org/) -->

<svg
   version="1.1"
   id="svg2"
   width="666.66669"
   height="666.66669"
   viewBox="0 0 666.66669 666.66669"
   sodipodi:docname="6666919.eps"
   xmlns:inkscape="http://www.inkscape.org/namespaces/inkscape"
   xmlns:sodipodi="http://sodipodi.sourceforge.net/DTD/sodipodi-0.dtd"
   xmlns="http://www.w3.org/2000/svg"
   xmlns:svg="http://www.w3.org/2000/svg">
  <defs
     id="defs6" />
  <sodipodi:namedview
     id="namedview4"
     pagecolor="#ffffff"
     bordercolor="#000000"
     borderopacity="0.25"
     inkscape:showpageshadow="2"
     inkscape:pageopacity="0.0"
     inkscape:pagecheckerboard="0"
     inkscape:deskcolor="#d1d1d1" />
  <g
     id="g8"
     inkscape:groupmode="layer"
     inkscape:label="ink_ext_XXXXXX"
     transform="matrix(1.3333333,0,0,-1.3333333,0,666.66667)">
    <g
       id="g10"
       transform="scale(0.1)">
      <path
         d="M 0,0 H 5000 V 5000 H 0 Z"
         style="fill:#ffffff;fill-opacity:1;fill-rule:nonzero;stroke:none"
         id="path12" />
      <path
         d="m 1728,1239.4 c 311.5,-159.9 511.5,-562.502 476,-939.298 -119.9,-62.301 -248.2,-108.5 -380.3,-137 C 1786.9,521.801 1743.8,868 1728,1239.4"
         style="fill:#fdefcd;fill-opacity:1;fill-rule:nonzero;stroke:none"
         id="path14" />
      <path
         d="M 474,-51.8008 C 487.5,185.602 535.398,693.301 576.301,1026.4 c 22.297,181.6 160.5,328.3 340.801,359.3 106.398,18.3 222.298,26.2 370.498,18.3 167.8,-38 298.9,-91.4 455.2,-172.2 87.9,-45.5 145.2,-134 150,-232.8 16.3,-338.301 26.4,-737.301 44.9,-1048.6016 C 1643.4,-131 735.699,-123.898 474,-51.8008"
         style="fill:#f9e6bb;fill-opacity:1;fill-rule:nonzero;stroke:none"
         id="path16" />
      <path
         d="m 1019.6,1626.1 c -11.9,-75.2 -23.901,-150.3 -39.897,-234.2 86.897,-100.3 199.297,-186.6 323.597,-232.4 80,24.3 145,77.9 207,155.3 -6.1,80.5 -4,161.9 6.4,241.9 -166.1,12.6 -331.7,33.3 -497.1,69.4"
         style="fill:#f7937c;fill-opacity:1;fill-rule:nonzero;stroke:none"
         id="path18" />
      <path
         d="m 1303.4,1159.5 c -7.2,45.5 -23,110.5 -32.7,151.1 -121.7,35 -224.9,100.8 -325.798,185.5 -24.004,-35.8 -35.504,-76.9 -38.601,-121.5 59.597,-75.1 250.099,-178.5 397.099,-215.1"
         style="fill:#f6c476;fill-opacity:1;fill-rule:nonzero;stroke:none"
         id="path20" />
      <path
         d="m 1303.4,1159.5 c 17.3,35.9 30.6,93.6 39.5,146 74.3,36.7 143.7,83.3 205.3,133.6 33.1,-37.9 40.5,-84.8 43.6,-134.8 -44.5,-36.3 -203.7,-132.9 -288.4,-144.8"
         style="fill:#f6c476;fill-opacity:1;fill-rule:nonzero;stroke:none"
         id="path22" />
      <path
         d="m 1303.4,1061.9 c 26.62,0 48.2,-21.58 48.2,-48.2 0,-26.618 -21.58,-48.2 -48.2,-48.2 -26.62,0 -48.2,21.582 -48.2,48.2 0,26.62 21.58,48.2 48.2,48.2"
         style="fill:#f6c476;fill-opacity:1;fill-rule:nonzero;stroke:none"
         id="path24" />
      <path
         d="m 1303.4,808.699 c 26.62,0 48.2,-21.578 48.2,-48.199 0,-26.621 -21.58,-48.199 -48.2,-48.199 -26.62,0 -48.2,21.578 -48.2,48.199 0,26.621 21.58,48.199 48.2,48.199"
         style="fill:#f6c476;fill-opacity:1;fill-rule:nonzero;stroke:none"
         id="path26" />
      <path
         d="m 1303.4,555.5 c 26.62,0 48.2,-21.578 48.2,-48.199 0,-26.621 -21.58,-48.199 -48.2,-48.199 -26.62,0 -48.2,21.578 -48.2,48.199 0,26.621 21.58,48.199 48.2,48.199"
         style="fill:#f6c476;fill-opacity:1;fill-rule:nonzero;stroke:none"
         id="path28" />
      <path
         d="m 397.402,214.5 c -76,90.602 -65.504,223.301 -49.605,340.5 20.703,152 44.207,305.801 106.707,445.9 62.5,140.1 169.297,266.9 309.398,311.7 C 814.102,962.5 808.598,604.398 743.598,256.402 631,254.398 518.5,243.801 397.402,214.5"
         style="fill:#fdefcd;fill-opacity:1;fill-rule:nonzero;stroke:none"
         id="path30" />
      <path
         d="m 1651.9,563.902 c -13.8,8.996 -29.9,14.399 -50,14.797 -85.5,-168.097 -94.1,-373.398 -19.4,-549.4998 82.6,158.9998 111.6,345.1988 69.4,534.7028"
         style="fill:#af976f;fill-opacity:1;fill-rule:nonzero;stroke:none"
         id="path32" />
      <path
         d="m 1646.7,337.102 c -26.3,139.398 -52.6,278.699 -78.9,418.097 -5.3,28.301 -10.8,57.102 -23.7,82.903 -12.9,25.8 -34.4,48.699 -57.7,55.398 -15.3,30.102 -39,57 -69.9,70.398 -30.9,13.403 -69.7,11.204 -95.5,-10.597 -34,-28.699 -36.7,-79.399 -35.8,-123.903 2.5,-122.5 12,-244.699 21.5,-366.796 3.3,-42.403 6.7,-85.204 19.3,-125.903 12.6,-40.597 35.5,-79.398 70.6,-103.398 43.5,-29.699 102.6,-32.903 151.1,-12.199 48.5,20.5 109.2,62.398 99,116"
         style="fill:#f7937c;fill-opacity:1;fill-rule:nonzero;stroke:none"
         id="path34" />
      <path
         d="m 1486.4,891.602 c -14.1,0.296 -27.6,-5.403 -37.8,-14.5 -10.3,-9 -16.6,-21.5 -18.7,-34.903 -2.3,-13.398 -1.2,-27.199 0,-41.097 1.1,-13.903 2.4,-27.801 4.3,-41.602 3.5,-27.699 9,-55.199 13.8,-82.801 5,-27.597 10.6,-55.097 15.3,-82.797 l 0.3,-1.601 -0.8,-1.199 c -21.3,-33.204 -31.4,-74 -26,-114.102 -4.9,19.602 -5.2,40.398 -2,60.602 3.6,20.199 10.9,39.699 21.2,57.597 l -0.5,-2.801 -16.9,82.5 c -5.7,27.5 -9.9,55.403 -13.3,83.5 -1.6,14 -2.9,28.102 -3.5,42.204 -0.5,14 -1,28.5 2.1,42.796 4.8,29.204 34.2,52 62.5,48.204"
         style="fill:#cf655d;fill-opacity:1;fill-rule:nonzero;stroke:none"
         id="path36" />
      <path
         d="m 1142.9,186.102 c 95.2,-9.7 182.4,60.699 211.1,134.398 28.7,73.699 17.4,151.199 23.7,227.199 5,61.102 21.5,121.903 26.4,183 4.9,61.102 -2.9,124.699 -48.6,182.403 5.2,33.5 -31.2,65.699 -73.9,65.398 -42.7,-0.301 -82.5,-33 -101.4,-61.102 -66.4,-136.296 -114.2,-277.597 -142.1,-420.5 -10.5,-53.796 -18.2,-108.296 -10.1,-161.597 8.1,-53.301 15.3,-139 114.9,-149.199"
         style="fill:#f9af8c;fill-opacity:1;fill-rule:nonzero;stroke:none"
         id="path38" />
      <path
         d="m 1352.3,901.602 c -17.5,5.296 -36.1,0 -50,-10.301 -14.5,-9.899 -24.3,-25 -30.7,-41.301 -6.4,-16.301 -10.1,-33.699 -13.6,-51.398 l -10.9,-52.903 c -7.6,-35.199 -15.2,-70.398 -23.5,-105.398 l -12.6,-52.5 c -4.5,-17.403 -8.8,-34.903 -13.6,-52.301 2.6,17.801 5.9,35.602 8.8,53.301 l 9.8,53.09 c 6.6,35.398 13.9,70.711 21.3,105.91 l 11.5,52.801 c 4,17.5 8,35.5 15.8,52.398 7.5,16.789 19,32.699 35,42.398 15.7,9.602 35.9,13.704 52.7,6.204"
         style="fill:#cf655d;fill-opacity:1;fill-rule:nonzero;stroke:none"
         id="path40" />
      <path
         d="m 1194.6,927.699 c -7.5,-14.597 -13.2,-29.898 -18.7,-45.199 -5.4,-15.398 -10.5,-30.898 -15.1,-46.5 -9.2,-31.301 -18.1,-62.699 -26.1,-94.398 -8.2,-31.602 -15.6,-63.403 -22.9,-95.2 -3.7,-15.902 -7,-31.902 -10.2,-47.902 l -4.9,-24 c -1.4,-8.098 -2.9,-16.102 -4.5,-24.102 1.8,32.801 6.4,65.301 12,97.602 5.5,32.398 12.7,64.398 20.8,96.199 8.2,31.801 17.4,63.301 28.5,94.301 11.1,30.602 22.9,61.699 41.1,89.199"
         style="fill:#cf655d;fill-opacity:1;fill-rule:nonzero;stroke:none"
         id="path42" />
      <path
         d="m 1575.8,28.1016 c 47.1,179.0974 54.8,368.5004 29.2,555.0974 196.5,-16.199 393.1,-32.398 594.5,-66.301 30.5,-119.796 17.6,-257 -62.2,-351.5 C 2075.5,92.3008 1980.9,53 1886.1,39.5 1791.2,26.1016 1694.8,35.6992 1575.8,28.1016"
         style="fill:#fdefcd;fill-opacity:1;fill-rule:nonzero;stroke:none"
         id="path44" />
      <path
         d="m 1927.5,557.199 c 20.3,1.301 40.8,-1.199 60.6,-6.199 19.8,-5 39.1,-12.398 57.2,-22.098 18.1,-9.601 35,-21.601 50.1,-35.3 15.1,-13.704 28.6,-29.403 38.8,-47 -16.4,12.097 -32.1,23.898 -48.4,34.8 -16.2,10.899 -32.9,20.797 -49.9,30 -17.1,9.098 -34.6,17.5 -52.6,25 -18.1,7.297 -36.6,13.899 -55.8,20.797"
         style="fill:#f6c476;fill-opacity:1;fill-rule:nonzero;stroke:none"
         id="path46" />
      <path
         d="M 1075.1,38.3008 C 1093.7,208.902 1086.5,382.199 1038.5,549.602 829.504,532 619.602,524.699 405.801,524.102 385.398,472.199 364.801,419.699 356.898,364.398 349,309.102 354.801,250.102 384.301,202.699 416.402,151 472.203,119 528.5,96 693.199,28.6992 875.496,21.4023 1075.1,38.3008"
         style="fill:#fdefcd;fill-opacity:1;fill-rule:nonzero;stroke:none"
         id="path48" />
      <path
         d="m 765.199,511.699 c -23.898,-12 -47.5,-23.5 -70.597,-35.699 -23.102,-12.301 -45.801,-25 -67.903,-38.699 -22.301,-13.399 -43.902,-28 -65.297,-42.903 C 540,379.301 519.102,363.5 497.5,347.699 c 15.602,21.699 34.199,41.203 54.199,58.903 20,17.796 41.801,33.597 64.602,47.699 23,13.801 46.898,26.097 71.898,35.801 24.797,9.898 50.602,17.5 77,21.597"
         style="fill:#f6c476;fill-opacity:1;fill-rule:nonzero;stroke:none"
         id="path50" />
      <path
         d="m 757.797,535.5 c -26.996,2 -53.399,3.801 -79.899,4.398 -26.398,0.5 -52.699,0.301 -78.898,-1.597 -26.203,-1.5 -52.301,-4.602 -78.504,-8.5 -26.098,-4 -52.098,-9.199 -78.598,-14.602 23.704,13.199 49.2,22.801 75.403,29.903 26.199,7.199 53.301,11.3 80.398,13.199 27.203,1.5 54.504,0.898 81.403,-2.801 26.996,-3.699 53.597,-10 78.695,-20"
         style="fill:#f6c476;fill-opacity:1;fill-rule:nonzero;stroke:none"
         id="path52" />
      <path
         d="m 1900.62,2075.69 c 70.76,109.01 208.94,144.92 308.63,80.2 99.7,-64.72 123.15,-205.54 52.39,-314.54 -70.76,-109.01 -208.93,-144.91 -308.63,-80.2 -99.69,64.72 -123.15,205.54 -52.39,314.54"
         style="fill:#f7937c;fill-opacity:1;fill-rule:nonzero;stroke:none"
         id="path54" />
      <path
         d="m 1286.5,3196.1 c 469.33,0 849.8,-382.39 849.8,-854.1 0,-471.71 -380.47,-854.1 -849.8,-854.1 -469.332,0 -849.801,382.39 -849.801,854.1 0,471.71 380.469,854.1 849.801,854.1"
         style="fill:#f9af8c;fill-opacity:1;fill-rule:nonzero;stroke:none"
         id="path56" />
      <path
         d="m 2087.9,1910.8 c 0,254.8 -335,461.1 -747.7,460.7 -412.7,-0.4 -747.098,-207.3 -746.802,-462.1 0.2,-254.8 298.102,-435.5 747.702,-460.7 412,-23.2 746.8,199.9 746.8,462.1"
         style="fill:#f9af8c;fill-opacity:1;fill-rule:nonzero;stroke:none"
         id="path58" />
      <path
         d="m 1630.9,2097.3 c 27.72,0 50.2,-31.29 50.2,-69.9 0,-38.6 -22.48,-69.9 -50.2,-69.9 -27.73,0 -50.2,31.3 -50.2,69.9 0,38.61 22.47,69.9 50.2,69.9"
         style="fill:#302121;fill-opacity:1;fill-rule:nonzero;stroke:none"
         id="path60" />
      <path
         d="m 1134.3,2121.1 c 27.73,0 50.2,-31.3 50.2,-69.9 0,-38.6 -22.47,-69.9 -50.2,-69.9 -27.72,0 -50.2,31.3 -50.2,69.9 0,38.6 22.48,69.9 50.2,69.9"
         style="fill:#302121;fill-opacity:1;fill-rule:nonzero;stroke:none"
         id="path62" />
      <path
         d="m 895.734,1818.83 c -9.347,0 -18.902,0.64 -28.586,1.96 -83.668,11.41 -144.828,69.54 -136.605,129.85 7.27,53.32 66.363,90.49 137.793,90.49 9.348,0 18.906,-0.64 28.59,-1.96 83.664,-11.42 144.824,-69.54 136.604,-129.84 -7.27,-53.33 -66.362,-90.5 -137.796,-90.5"
         style="fill:#f68782;fill-opacity:1;fill-rule:nonzero;stroke:none"
         id="path64" />
      <path
         d="m 1821.6,1737.3 c -84.44,0 -152.9,49.34 -152.9,110.2 0,60.86 68.46,110.2 152.9,110.2 84.45,0 152.9,-49.34 152.9,-110.2 0,-60.86 -68.45,-110.2 -152.9,-110.2"
         style="fill:#f68782;fill-opacity:1;fill-rule:nonzero;stroke:none"
         id="path66" />
      <path
         d="m 1839.8,2283.8 c -15.4,21 -34,36.1 -54.7,47.4 -20.6,11.3 -42.9,18.8 -65.7,23 -22.9,4.1 -46.4,5 -69.8,2 -23.5,-2.9 -46.6,-10.1 -70,-21.5 15.4,21.1 39,36.3 64.7,44.4 25.8,8.1 53.8,9.5 80.5,4.5 26.7,-4.9 52.4,-16 73.6,-33.1 20.9,-16.9 37.7,-40.6 41.4,-66.7"
         style="fill:#7e3a28;fill-opacity:1;fill-rule:nonzero;stroke:none"
         id="path68" />
      <path
         d="m 920.496,2365.8 c 8.004,25 28.504,45.7 52.102,58.8 23.804,13.3 51.002,19.9 78.102,20.2 27.1,0.4 54.5,-5.6 78.5,-18 23.9,-12.4 44.7,-31.3 56.3,-54.7 -21.2,15.1 -42.7,26.1 -65.4,32.9 -22.5,7 -45.9,10.1 -69.1,9.8 -23.3,-0.3 -46.5,-3.9 -68.699,-11.6 -22.203,-7.6 -43.102,-19.3 -61.805,-37.4"
         style="fill:#7e3a28;fill-opacity:1;fill-rule:nonzero;stroke:none"
         id="path70" />
      <path
         d="m 1224.5,1834.4 c 11.8,-31.4 31.7,-56.9 55.9,-75.7 24.4,-18.6 53.1,-30.4 82.4,-32.1 29.3,-1.7 59.2,6.6 85.6,22.2 26.3,15.9 49,38.8 64.5,68.6 -3.4,-33.7 -23.3,-65.9 -51,-87.8 -27.5,-22.3 -63.9,-35.2 -100.8,-33 -36.8,2.2 -71.5,19.3 -96.2,44.6 -25,25.1 -41,59.4 -40.4,93.2"
         style="fill:#ba3c4a;fill-opacity:1;fill-rule:nonzero;stroke:none"
         id="path72" />
      <path
         d="m 616.199,1948.5 c 22.903,150.6 60,299.1 110.602,442.8 1.597,-18.8 3.101,-37.7 4.699,-56.5 90.504,128.2 168.004,265.5 237.098,430.9 -194.496,-34 -301.7,-98.6 -469.2,-200.8 -90,-90 -160.496,-228.9 -179.796,-350.7 9.597,10.5 19.199,21 28.796,31.5 -11.5,-137.5 92.801,-275.1 267.801,-297.2"
         style="fill:#7e3a28;fill-opacity:1;fill-rule:nonzero;stroke:none"
         id="path74" />
      <path
         d="m 1814.6,2744.9 c 236.9,-209.3 246.7,-540.2 266.3,-707 89.1,139 115.5,316.5 70.8,475.4 -78.7,46.2 -222.7,144.2 -337.1,231.6"
         style="fill:#7e3a28;fill-opacity:1;fill-rule:nonzero;stroke:none"
         id="path76" />
      <path
         d="m 322.668,2153.91 c 99.574,64.89 237.816,29.23 308.77,-79.64 70.957,-108.88 47.75,-249.74 -51.825,-314.63 -99.57,-64.89 -237.812,-29.24 -308.761,79.63 -70.957,108.87 -47.754,249.74 51.816,314.64"
         style="fill:#f9af8c;fill-opacity:1;fill-rule:nonzero;stroke:none"
         id="path78" />
      <path
         d="m 2166.8,2452.9 c -36.3,30.8 -74.2,59.2 -114.2,85.2 -163.2,106.7 -359.5,176 -604.7,221 -305.8,-29.4 -726.298,-164.5 -1050.002,-332.3 -34.597,175.1 -9.699,400.9 54.504,595.9 135.196,149.8 332.696,297.9 570.598,399.5 116.3,49.9 242.2,88.6 375.2,111.1 276.4,-44.5 581.3,-289.6 712.4,-502.1 26,-77.6 71.5,-394.5 56.2,-578.3"
         style="fill:#1a242f;fill-opacity:1;fill-rule:nonzero;stroke:none"
         id="path80" />
      <path
         d="m 2166.8,2452.9 c -36.3,30.8 -74.2,59.2 -114.2,85.2 -170.1,146.1 -384.5,240.7 -607.5,264.5 18.2,221.5 5,440 -36.6,652.8 -132.9,17.2 -263.5,4.3 -385.5,-33.2 116.3,49.9 242.2,88.6 375.2,111.1 276.4,-44.5 581.3,-289.6 712.4,-502.1 26,-77.6 71.5,-394.5 56.2,-578.3"
         style="fill:#23313e;fill-opacity:1;fill-rule:nonzero;stroke:none"
         id="path82" />
      <path
         d="m 1698.7,4759 c 444.59,0 805,-263.26 805,-588 0,-324.75 -360.41,-588 -805,-588 -444.59,0 -805.001,263.25 -805.001,588 0,324.74 360.411,588 805.001,588"
         style="fill:#7ed3c6;fill-opacity:1;fill-rule:nonzero;stroke:none"
         id="path84" />
      <g
         id="g86"
         transform="scale(10)">
        <text
           xml:space="preserve"
           transform="matrix(1,0,0,-1,129.832,424.823)"
           style="font-variant:normal;font-weight:normal;font-size:27.1188px;font-family:FredokaOne;-inkscape-font-specification:FredokaOne-Regular;writing-mode:lr-tb;fill:#ffffff;fill-opacity:1;fill-rule:nonzero;stroke:none"
           id="text92"><tspan
             x="0 15.810261 31.973064 40.840912 57.003719"
             y="0"
             sodipodi:role="line"
             id="tspan88">Salam</tspan><tspan
             x="-13.3301 6.8734956 15.741343 31.904148 38.818699 52.540897 68.974892"
             y="32.539799"
             sodipodi:role="line"
             id="tspan90">Alaikum</tspan></text>
      </g>
      <path
         d="m 1775,3679.3 c 3.3,-96.2 6.7,-192.3 16.7,-296.6 54.8,70.6 159.6,196.5 213.5,263.8 -58.6,27.7 -167.1,0.1 -230.2,32.8"
         style="fill:#7ed3c6;fill-opacity:1;fill-rule:nonzero;stroke:none"
         id="path94" />
      <path
         d="M 3294.1,1222.5 C 2977,1032.8 2788.8,647.602 2824.3,270.801 c 119.9,-62.301 248.2,-108.5 380.3,-137 36.9,358.699 73.7,717.301 89.5,1088.699"
         style="fill:#f24d8a;fill-opacity:1;fill-rule:nonzero;stroke:none"
         id="path96" />
      <path
         d="M 4544.3,-21.0977 C 4530.8,216.301 4492.9,664 4452,997.102 4429.7,1178.7 4291.5,1325.4 4111.2,1356.4 c -106.4,18.3 -222.3,26.2 -370.5,18.3 -167.8,-38 -303.8,-82.5 -455.2,-172.2 -139.4,-82.7 -134.2,-261.5 -194.8,-1281.3984 294.2,-81.4026 1191.9,-14.3008 1453.6,57.8007"
         style="fill:#f24d8a;fill-opacity:1;fill-rule:nonzero;stroke:none"
         id="path98" />
      <path
         d="m 3809.8,1096.3 c -26.6,-413.499 -0.6,-830.402 76.6,-1237.198 236.3,-10.403 474.3,17 702.1,80.7964 C 4549.7,351.801 4511,763.602 4472.2,1175.5 4272.8,1160.7 4073.3,1146 3809.8,1096.3"
         style="fill:#543a83;fill-opacity:1;fill-rule:nonzero;stroke:none"
         id="path100" />
      <path
         d="m 3541.2,1118.6 c -46.6,-421.799 -74.3,-845.799 -82.9,-1270.1 -141,4 -298,35.402 -435.2,35.402 -42,407.797 75.7,904.496 165.5,1291.598 130.7,-5.7 218.9,-58.1 352.6,-56.9"
         style="fill:#543a83;fill-opacity:1;fill-rule:nonzero;stroke:none"
         id="path102" />
      <path
         d="m 4630.9,185.199 c 76,90.602 65.5,223.301 49.6,340.5 -20.7,152 -44.2,305.801 -106.7,445.903 -62.5,140.098 -169.3,266.898 -309.4,311.698 -50.2,-350.101 -44.7,-708.198 20.3,-1056.198 112.7,-2 225.1,-12.602 346.2,-41.903"
         style="fill:#f24d8a;fill-opacity:1;fill-rule:nonzero;stroke:none"
         id="path104" />
      <path
         d="m 3090.5,1082.1 c 376.5,-127.6 1112.3,-154.202 1416.9,7.9 57.8,40.4 47,135.6 5,191.4 -14,18.7 -31.5,33 -51.1,39.4 2.2,4.3 4,8.7 5.7,13.1 12.2,34 8.5,73 -8.6,109 -7.2,15.2 -16.7,29.9 -28.3,43.5 -0.9,0.9 -1.7,1.8 -2.5,2.7 -19,21.3 -43.4,39.6 -72.39,52.7 -26.01,11.8 -53.31,19.9 -81.21,25.4 -54.4,10.9 -111.4,12.2 -167.4,11.2 -270.6,-4.6 -541.1,-9.3 -938.89,-53.3 -27.61,-3.1 -55.91,-6.4 -84.71,-9.8 -0.4,-1.3 -1,-2.6 -1.4,-3.9 -94.7,-274.5 -61.7,-377.9 8.9,-429.3"
         style="fill:#e1327d;fill-opacity:1;fill-rule:nonzero;stroke:none"
         id="path106" />
      <path
         d="m 2828.4,2049.5 c 46.6,-187.4 128,-378 253.2,-537.9 28.9,-36.9 60.1,-72.1 93.7,-105.4 282.7,-74.2 579.4,-90.2 866.6,-47.4 107.1,15.9 212.9,40.1 316.1,72.6 25.1,17.4 49.2,35.8 72.1,55.1 2,1.7 4.1,3.4 6.1,5.2 526.9,449.5 472.4,1373.7 -137.8,1709.1 -65.1,35.9 -136.2,64 -210.8,84.5 -472.5,130 -1088,-47 -1264.5,-530.6 -56.1,-153.9 -64,-426.1 5.3,-705.2"
         style="fill:#e1327d;fill-opacity:1;fill-rule:nonzero;stroke:none"
         id="path108" />
      <path
         d="m 3023.5,1720.8 c 120.2,-308.9 942.4,-616.3 1435,-277.8 -7.2,15.2 -16.7,29.9 -28.3,43.5 2,1.7 4.1,3.4 6.1,5.2 -2.9,-0.9 -5.8,-1.7 -8.7,-2.4 -159.7,-45.2 -335.5,-97.9 -491,-54.5 124.1,-2.6 247.1,47.9 337.5,132.7 40.2,37.7 73.9,82.2 98.4,131.7 -412.3,-123.8 -860.8,-123.7 -1349,21.6"
         style="fill:#b92370;fill-opacity:1;fill-rule:nonzero;stroke:none"
         id="path110" />
      <path
         d="m 4242.6,1707.6 c 147.4,76 241,231.3 281.3,392.2 40.3,160.9 34.2,329.3 16.5,500.2 70.9,-165.3 84.9,-354.4 39,-528.4 -45.8,-173.9 -151.2,-331.6 -294.4,-440.5 -10.7,30 -21.5,59.9 -42.4,76.5"
         style="fill:#b92370;fill-opacity:1;fill-rule:nonzero;stroke:none"
         id="path112" />
      <path
         d="m 3294.4,1187.8 c 399.5,-123 849.7,-102.4 1218.1,93.7 -14,18.7 -31.5,33 -51.1,39.4 2.2,4.3 4,8.7 5.7,13.1 -69,-47.8 -153.6,-72.1 -236,-92.4 -306.2,-75.7 -627.9,-117.5 -936.7,-53.8"
         style="fill:#b92370;fill-opacity:1;fill-rule:nonzero;stroke:none"
         id="path114" />
      <path
         d="m 2828.4,2049.5 c -14.1,159.4 -2.9,320.6 39.5,474.6 66.3,240.6 211.9,462.3 419.1,601.3 112.2,75.2 240.4,125.4 372.7,152.4 140.5,28.7 286.2,30.7 427.8,7.4 -472.5,130 -1088,-47 -1264.5,-530.6 -56,-153.8 -63.9,-426 5.4,-705.1"
         style="fill:#f14188;fill-opacity:1;fill-rule:nonzero;stroke:none"
         id="path116" />
      <path
         d="m 2958.2,1981.8 c 128.6,-307.2 430.6,-522.9 782.9,-523.2 271.7,-0.3 513.8,127.7 669.5,327.1 6.4,49.6 9.9,99.4 10.4,149.4 0.1,11.6 0.1,23.3 -0.1,34.9 -2.7,179.4 -42.3,358.3 -116.4,521.6 -13.3,29.5 -27.8,58.4 -43.4,86.8 -140.7,256.4 -370.5,462.6 -647.5,561.8 -220.6,-92.7 -409.1,-260.3 -527.1,-468.5 -36,-63.7 -64.4,-129.8 -85.6,-198 -29.6,-95.1 -45.6,-194.1 -49.5,-296.01 -2.4,-64.29 0,-129.59 6.8,-195.89"
         style="fill:#f9af8c;fill-opacity:1;fill-rule:nonzero;stroke:none"
         id="path118" />
      <path
         d="m 2940.5,1881.5 c 0,-262.3 334.8,-485.3 746.8,-462.2 365.9,20.6 631.3,144.1 717.5,326.7 2.2,13.1 4.1,26.4 5.8,39.6 6.4,49.6 9.9,99.4 10.4,149.4 0.1,11.6 0.1,23.3 -0.1,34.9 -7.3,22.9 -17.3,45.3 -29.9,66.8 -103.7,177.9 -379.2,305.1 -702.8,305.5 -356.9,0.3 -655.7,-153.8 -729.9,-360.4 v -0.1 c -11.7,-32.3 -17.8,-65.7 -17.8,-100.2"
         style="fill:#f9af8c;fill-opacity:1;fill-rule:nonzero;stroke:none"
         id="path120" />
      <path
         d="m 3164.1,2606.5 c 110.9,160.3 249.7,301.1 409.8,412.4 189.3,-102.8 355.7,-240.8 492.3,-402.6 -186.8,79.7 -385,130.6 -494.1,130.6 -119.5,-0.1 -273,-53.5 -408,-140.4"
         style="fill:#f585a7;fill-opacity:1;fill-rule:nonzero;stroke:none"
         id="path122" />
      <path
         d="M 3164.1,2606.5 C 3073,2474.8 3000.8,2330 2951.5,2177.7 c 3.8,102 19.9,201 49.5,296 47.7,49.7 103.6,94.5 163.1,132.8"
         style="fill:#f7937c;fill-opacity:1;fill-rule:nonzero;stroke:none"
         id="path124" />
      <path
         d="m 4420.9,1969.9 c 0.2,-11.6 0.2,-23.3 0.1,-34.9 -8.9,34.2 -18.9,68.1 -30,101.7 -69.5,211 -180.6,408.6 -324.9,579.5 85,-36.3 167.6,-78.5 238.4,-124.7 74.1,-163.3 113.7,-342.2 116.4,-521.6"
         style="fill:#f7937c;fill-opacity:1;fill-rule:nonzero;stroke:none"
         id="path126" />
      <path
         d="m 3573.8,3018.9 c -160,-111.2 -298.9,-252.1 -409.8,-412.4 -59.5,-38.3 -115.4,-83.1 -163.1,-132.8 21.3,68.2 49.6,134.3 85.6,198 118,208.2 306.4,375.8 527.1,468.5 277,-99.2 506.8,-305.4 647.5,-561.8 15.6,-28.4 30.1,-57.4 43.4,-86.8 -70.8,46.2 -153.4,88.4 -238.4,124.7 -136.6,161.8 -302.9,299.8 -492.3,402.6"
         style="fill:#e06798;fill-opacity:1;fill-rule:nonzero;stroke:none"
         id="path128" />
      <path
         d="m 4132.52,1789.74 c -71.44,0 -130.52,37.17 -137.79,90.48 -8.23,60.31 52.94,118.44 136.6,129.85 9.69,1.32 19.25,1.96 28.61,1.96 71.42,0 130.5,-37.17 137.77,-90.49 8.23,-60.3 -52.93,-118.43 -136.61,-129.84 -9.67,-1.32 -19.24,-1.96 -28.58,-1.96"
         style="fill:#f68782;fill-opacity:1;fill-rule:nonzero;stroke:none"
         id="path130" />
      <path
         d="m 3206.7,1708 c -84.44,0 -152.9,49.33 -152.9,110.2 0,60.86 68.46,110.2 152.9,110.2 84.44,0 152.9,-49.34 152.9,-110.2 0,-60.87 -68.46,-110.2 -152.9,-110.2"
         style="fill:#f68782;fill-opacity:1;fill-rule:nonzero;stroke:none"
         id="path132" />
      <path
         d="m 3188.5,2254.5 c 3.7,26 20.4,49.8 41.4,66.8 21.2,17.1 46.9,28.2 73.6,33.1 26.7,4.9 54.7,3.6 80.5,-4.5 25.7,-8.2 49.4,-23.3 64.7,-44.4 -23.4,11.3 -46.5,18.5 -70,21.5 -23.4,3.1 -46.9,2.2 -69.8,-2 -22.9,-4.2 -45.2,-11.7 -65.7,-23 -20.6,-11.4 -39.3,-26.5 -54.7,-47.5"
         style="fill:#7e3a28;fill-opacity:1;fill-rule:nonzero;stroke:none"
         id="path134" />
      <path
         d="m 4107.8,2336.5 c -18.7,18.1 -39.6,29.8 -61.9,37.5 -22.2,7.7 -45.4,11.3 -68.7,11.6 -23.3,0.2 -46.6,-2.9 -69.1,-9.8 -22.7,-6.9 -44.2,-17.8 -65.4,-32.9 11.6,23.4 32.4,42.3 56.3,54.7 24.1,12.4 51.4,18.4 78.5,18 27.1,-0.4 54.4,-7 78.1,-20.2 23.7,-13.2 44.2,-33.9 52.2,-58.9"
         style="fill:#7e3a28;fill-opacity:1;fill-rule:nonzero;stroke:none"
         id="path136" />
      <path
         d="m 3943.8,2102.8 c 24.14,0 43.7,-26.24 43.7,-58.6 0,-32.36 -19.56,-58.6 -43.7,-58.6 -24.13,0 -43.7,26.24 -43.7,58.6 0,32.36 19.57,58.6 43.7,58.6"
         style="fill:#302121;fill-opacity:1;fill-rule:nonzero;stroke:none"
         id="path138" />
      <path
         d="m 3380.5,2070.5 c 24.14,0 43.7,-26.23 43.7,-58.6 0,-32.37 -19.56,-58.6 -43.7,-58.6 -24.13,0 -43.7,26.23 -43.7,58.6 0,32.37 19.57,58.6 43.7,58.6"
         style="fill:#302121;fill-opacity:1;fill-rule:nonzero;stroke:none"
         id="path140" />
      <path
         d="m 3536.6,1833.6 c 91.3,-18 188.1,-6.6 289.7,23.2 27.6,-58.8 12.6,-134.6 -35.2,-178.5 -47.8,-43.9 -124.7,-52.3 -180.9,-19.8 -56.2,32.5 -87.2,103.3 -73.6,175.1"
         style="fill:#ffffff;fill-opacity:1;fill-rule:nonzero;stroke:none"
         id="path142" />
      <path
         d="m 3371.8,535.199 c 15.8,8.102 33,13.5 53.8,22.403 83.4,-173.7 95.8,-374.903 26.9,-558.80122 C 3360.4,160.699 3326.9,349.898 3371.8,535.199"
         style="fill:#b62a62;fill-opacity:1;fill-rule:nonzero;stroke:none"
         id="path144" />
      <path
         d="m 3381.6,307.801 c 26.3,139.398 52.6,278.699 78.9,418.097 5.3,28.301 10.8,57.102 23.7,82.903 12.9,25.801 34.4,48.699 57.7,55.398 15.3,30.102 39,57 69.9,70.403 31,13.398 69.7,11.199 95.5,-10.602 34,-28.699 36.7,-79.398 35.8,-123.898 -2.5,-122.5 -12,-244.704 -21.5,-366.801 -3.3,-42.403 -6.7,-85.199 -19.3,-125.903 C 3689.7,266.801 3666.8,228 3631.7,204 c -43.5,-29.699 -102.6,-32.898 -151.1,-12.199 -48.5,20.5 -109.1,62.398 -99,116"
         style="fill:#f7937c;fill-opacity:1;fill-rule:nonzero;stroke:none"
         id="path146" />
      <path
         d="m 3541.9,862.301 c 28.3,3.801 57.7,-19 62.6,-48.199 3.1,-14.301 2.6,-28.801 2.1,-42.801 -0.6,-14.102 -1.9,-28.199 -3.5,-42.199 -3.3,-28 -7.6,-55.903 -13.3,-83.5 l -16.9,-82.5 -0.5,2.796 c 10.3,-17.898 17.6,-37.398 21.2,-57.597 3.2,-20.199 2.9,-41 -2,-60.602 5.4,40.102 -4.7,80.903 -26,114.102 l -0.8,1.199 0.3,1.602 c 4.7,27.699 10.3,55.296 15.3,82.796 4.8,27.602 10.3,55 13.8,82.801 1.9,13.801 3.2,27.699 4.3,41.602 1.2,13.898 2.3,27.801 0,41.097 -2.2,13.403 -8.4,25.903 -18.7,34.903 -10.2,9 -23.8,14.801 -37.9,14.5"
         style="fill:#cf655d;fill-opacity:1;fill-rule:nonzero;stroke:none"
         id="path148" />
      <path
         d="m 3885.4,156.801 c -95.2,-9.699 -182.4,60.699 -211.1,134.398 -28.7,73.699 -17.4,151.199 -23.7,227.199 -5,61.102 -21.5,121.903 -26.4,183.004 -4.9,61.098 2.9,124.7 48.6,182.399 -5.2,33.5 31.2,65.699 73.9,65.398 42.7,-0.301 82.5,-33 101.4,-61.097 66.4,-136.301 114.2,-277.602 142.1,-420.5 10.5,-53.801 18.2,-108.301 10.1,-161.602 -7.9,-53.199 -15.3,-139 -114.9,-149.199"
         style="fill:#f9af8c;fill-opacity:1;fill-rule:nonzero;stroke:none"
         id="path150" />
      <path
         d="m 3676,872.301 c 16.8,7.5 37.1,3.398 52.7,-6.199 16.1,-9.7 27.6,-25.602 35,-42.403 7.8,-16.898 11.7,-34.898 15.8,-52.398 L 3791,718.5 c 7.4,-35.199 14.7,-70.5 21.3,-105.898 l 9.8,-53.102 c 2.9,-17.801 6.2,-35.5 8.8,-53.301 -4.8,17.403 -9.1,34.903 -13.6,52.301 l -12.6,52.5 c -8.4,35 -16,70.199 -23.5,105.402 l -10.9,52.899 c -3.5,17.597 -7.2,35 -13.6,51.398 -6.3,16.301 -16.1,31.403 -30.7,41.301 -13.9,10.301 -32.6,15.5 -50,10.301"
         style="fill:#cf655d;fill-opacity:1;fill-rule:nonzero;stroke:none"
         id="path152" />
      <path
         d="m 3833.8,898.398 c 18.2,-27.5 29.9,-58.597 41.1,-89.398 11.1,-30.898 20.2,-62.5 28.5,-94.301 8,-31.801 15.2,-63.898 20.8,-96.199 5.6,-32.301 10.2,-64.898 12,-97.602 -1.6,8.004 -3.1,16.102 -4.5,24.102 l -4.9,24 c -3.2,16 -6.5,32 -10.2,47.898 -7.3,31.801 -14.7,63.602 -22.9,95.204 -8,31.699 -16.8,63.097 -26.1,94.398 -4.6,15.699 -9.7,31.102 -15.1,46.5 -5.5,15.5 -11.2,30.801 -18.7,45.398"
         style="fill:#cf655d;fill-opacity:1;fill-rule:nonzero;stroke:none"
         id="path154" />
      <path
         d="M 3452.5,-1.19922 C 3405.4,177.898 3397.7,367.301 3423.3,553.902 c -196.5,-16.203 -393.1,-32.402 -594.5,-66.3 -30.5,-119.801 -17.6,-257 62.2,-351.5 C 2952.8,63 3047.4,23.6992 3142.2,10.1992 3237.1,-3.19922 3333.5,6.40234 3452.5,-1.19922"
         style="fill:#f24d8a;fill-opacity:1;fill-rule:nonzero;stroke:none"
         id="path156" />
      <path
         d="M 3029.2,506.301 C 3013,501 2997.6,495.898 2982.7,490 c -14.9,-5.898 -29.3,-12.602 -43.3,-20.102 -13.9,-7.5 -27.6,-15.699 -40.8,-24.796 -13.2,-9.102 -26,-19.102 -39.4,-29.602 6.9,15.602 17.3,29.5 29.4,41.5 12.2,12.102 26.1,22.398 41.3,30.5 15.2,8.102 31.5,14 48.3,17.398 16.9,3.403 34.2,4.301 51,1.403"
         style="fill:#b02563;fill-opacity:1;fill-rule:nonzero;stroke:none"
         id="path158" />
      <path
         d="M 3953.2,8.90234 C 3934.6,179.5 3941.8,352.801 3989.8,520.199 c 209,-17.597 418.9,-24.898 632.7,-25.5 20.4,-51.898 41,-104.398 48.9,-159.699 7.9,-55.301 2.1,-114.301 -27.4,-161.699 C 4611.9,121.602 4556.1,89.6016 4499.8,66.6016 4335.1,-0.601563 4152.8,-7.89844 3953.2,8.90234"
         style="fill:#f24d8a;fill-opacity:1;fill-rule:nonzero;stroke:none"
         id="path160" />
      <path
         d="m 4266.8,485.5 c 27.2,-5.301 53.7,-13.801 79.4,-24.098 25.8,-10.203 50.6,-22.703 74.7,-36.402 23.9,-14.102 47.1,-29.5 68.7,-46.801 21.7,-17.199 42.2,-36 60.3,-57 l -69.4,44.301 c -23.1,14.398 -46.1,28.801 -69.7,42.199 -23.4,13.801 -47.2,26.699 -71.2,39.59 l -72.8,38.211"
         style="fill:#b02563;fill-opacity:1;fill-rule:nonzero;stroke:none"
         id="path162" />
      <path
         d="m 4267.7,515.398 c 24.4,10.403 50.2,17.204 76.5,21.204 26.3,4.199 53,5.296 79.7,4.097 26.6,-1.5 53.1,-5.199 78.9,-11.898 25.7,-6.602 50.8,-15.903 74,-28.699 -26,5 -51.5,9.796 -77.1,13.398 -25.6,3.5 -51.1,6.199 -76.8,7.301 -25.6,1.5 -51.4,1.301 -77.2,0.398 -25.8,-1.097 -51.6,-3.398 -78,-5.801"
         style="fill:#b02563;fill-opacity:1;fill-rule:nonzero;stroke:none"
         id="path164" />
      <path
         d="m 3391.1,4713.5 c 444.59,0 805,-263.25 805,-588 0,-324.74 -360.41,-588 -805,-588 -444.59,0 -805,263.26 -805,588 0,324.75 360.41,588 805,588"
         style="fill:#7ed3c6;fill-opacity:1;fill-rule:nonzero;stroke:none"
         id="path166" />
      <g
         id="g168"
         transform="scale(10)">
        <text
           xml:space="preserve"
           transform="matrix(1,0,0,-1,299.074,420.275)"
           style="font-variant:normal;font-weight:normal;font-size:27.1188px;font-family:FredokaOne;-inkscape-font-specification:FredokaOne-Regular;writing-mode:lr-tb;fill:#ffffff;fill-opacity:1;fill-rule:nonzero;stroke:none"
           id="text174"><tspan
             x="0 15.810261 31.973064 40.840912 57.003719"
             y="0"
             sodipodi:role="line"
             id="tspan170">Salam</tspan><tspan
             x="-13.3297 6.8738956 15.741743 31.904549 38.819111 52.541309 68.975304"
             y="32.540199"
             sodipodi:role="line"
             id="tspan172">Alaikum</tspan></text>
      </g>
      <path
         d="m 3191.9,3577.8 c 54.7,-79.1 109.5,-158.3 174.2,-240.6 8,89 16,178.1 25,263.8 -64.3,-8.3 -128.5,-16.6 -199.2,-23.2"
         style="fill:#7ed3c6;fill-opacity:1;fill-rule:nonzero;stroke:none"
         id="path176" />
    </g>
  </g>
</svg>
