<?xml version="1.0" encoding="UTF-8" standalone="no"?>
<!-- Created with Inkscape (http://www.inkscape.org/) -->

<svg
   version="1.1"
   id="svg2"
   width="666.66669"
   height="666.66669"
   viewBox="0 0 666.66669 666.66669"
   sodipodi:docname="6666941.eps"
   xmlns:inkscape="http://www.inkscape.org/namespaces/inkscape"
   xmlns:sodipodi="http://sodipodi.sourceforge.net/DTD/sodipodi-0.dtd"
   xmlns="http://www.w3.org/2000/svg"
   xmlns:svg="http://www.w3.org/2000/svg">
  <defs
     id="defs6">
    <clipPath
       clipPathUnits="userSpaceOnUse"
       id="clipPath132">
      <path
         d="m 3942.09,1776.45 c -70.18,0 -128.24,36.52 -135.38,88.93 -8.09,59.27 51.99,116.39 134.18,127.6 9.5,1.29 18.89,1.92 28.07,1.92 70.18,0 128.23,-36.53 135.39,-88.93 8.07,-59.27 -52.01,-116.39 -134.19,-127.6 -9.51,-1.3 -18.9,-1.92 -28.07,-1.92"
         id="path130" />
    </clipPath>
  </defs>
  <sodipodi:namedview
     id="namedview4"
     pagecolor="#ffffff"
     bordercolor="#000000"
     borderopacity="0.25"
     inkscape:showpageshadow="2"
     inkscape:pageopacity="0.0"
     inkscape:pagecheckerboard="0"
     inkscape:deskcolor="#d1d1d1" />
  <g
     id="g8"
     inkscape:groupmode="layer"
     inkscape:label="ink_ext_XXXXXX"
     transform="matrix(1.3333333,0,0,-1.3333333,0,666.66667)">
    <g
       id="g10"
       transform="scale(0.1)">
      <path
         d="M 0,0 H 5000 V 5000 H 0 Z"
         style="fill:#ffffff;fill-opacity:1;fill-rule:nonzero;stroke:none"
         id="path12" />
      <path
         d="M 1751,1175.4 C 2062.7,988.898 2247.6,610.301 2212.8,240 2094.9,178.801 1968.8,133.398 1839,105.301 1802.8,457.898 1766.6,810.398 1751,1175.4"
         style="fill:#481e36;fill-opacity:1;fill-rule:nonzero;stroke:none"
         id="path14" />
      <path
         d="m 522.301,-47 c 13.301,233.402 50.496,673.402 90.695,1000.801 21.906,178.399 157.805,322.699 335,353.099 104.504,17.9 218.504,25.7 364.204,18 164.9,-37.3 293.8,-89.8 447.4,-169.3 86.4,-44.7 142.7,-131.7 147.4,-228.799 16.1,-332.5 25.9,-724.699 44.1,-1030.699 C 1661.8,-183.699 779.504,-117.801 522.301,-47"
         style="fill:#39182c;fill-opacity:1;fill-rule:nonzero;stroke:none"
         id="path16" />
      <path
         d="m 437.102,155.801 c -74.7,89.097 -64.403,219.5 -48.704,334.699 20.301,149.398 43.5,300.602 104.903,438.301 61.402,137.699 166.402,262.399 304.101,306.399 49.399,-344.098 43.899,-696.098 -20,-1038.098 -110.703,-2 -221.203,-12.403 -340.3,-41.301"
         style="fill:#481e36;fill-opacity:1;fill-rule:nonzero;stroke:none"
         id="path18" />
      <path
         d="M 1563.8,783.602 C 1595.9,410.699 1543.5,29.1992 1411.9,-320.801 1270.4,-270.898 1152.7,-148.102 1057.1,-8.39844 962.203,130.301 926.602,304.199 956.898,472.699 c 18.301,101.602 34.903,197.801 60.802,324.403 169.5,4 339.1,8 546.1,-13.5"
         style="fill:#68243f;fill-opacity:1;fill-rule:nonzero;stroke:none"
         id="path20" />
      <path
         d="m 2248.7,2107.6 c -6.3,-51.3 -15.6,-103.8 -27.5,-156.6 -53.2,-236.5 -158.8,-476.8 -282.4,-620.8 -6,-7 -12.1,-13.9 -18.2,-20.5 4,-5.2 7.8,-10.3 11.5,-15.5 96.9,-130.8 171.2,-285.5 214.2,-430.501 -506.8,-274.5 -1213.8,-396.097 -1816.999,-345.5 -4.903,50.403 1.301,109.199 13.695,170.403 4.106,20.097 8.902,40.398 14.207,60.796 34.899,134.102 92.098,268.712 123.399,339.402 -28.903,45.1 -35.801,97.3 -20.403,142.4 15.5,45.1 53,82.1 98.399,96.91 -118.895,253.09 -226.2,572.29 -235.7,866.09 -9.5,293.9 80.5,601.9 294.403,803.5 63.902,60.2 136.699,108.6 215.097,145.6 210.302,99.6 461.402,118.2 690.502,65.3 164.6,-38.1 324,-111.7 444.2,-230.3 209.7,-207 317.5,-578.3 281.6,-870.7"
         style="fill:#732c44;fill-opacity:1;fill-rule:nonzero;stroke:none"
         id="path22" />
      <path
         d="m 883.199,1544.9 c -290.601,188.8 -457.703,551.6 -401.597,907.4 -51.204,-176.3 -42.403,-369.5 24.699,-540.4 67.097,-170.9 192,-318.5 349.5,-412.9 6.601,18.9 13.199,37.9 27.398,45.9"
         style="fill:#622743;fill-opacity:1;fill-rule:nonzero;stroke:none"
         id="path24" />
      <path
         d="M 357.203,749.301 C 552.004,735.5 751,790.602 931.402,870.801 1151.9,969 1354,1104.3 1571.8,1208.4 1380,1123.2 1202.4,1049.5 1016.1,1051.7 829.902,1054 631.5,1153.3 572.699,1329.9 681.301,1164 905.398,1084 1094.5,1143.6 c 143.7,45.3 283.1,104.1 415.9,175.4 -191.3,-54.2 -403,-34.6 -585.599,49.6 C 742.203,1453 590,1601.4 501,1781.7 c 147.801,-244.4 450.898,-381.1 730.9,-332.6 153.9,-19.7 484.2,54.8 778,202.4 -52.9,-167.2 -172.2,-312.3 -325.8,-396.8 88.9,6.9 176.2,32.9 254.7,75.4 -6,-7 -12.1,-13.9 -18.2,-20.5 4,-5.2 7.8,-10.3 11.5,-15.5 C 1575.7,957.102 1103.6,749.5 617.195,678.398 547.898,668.301 477.301,660.699 408.102,671.602 c -22.004,3.398 -44,9 -65.106,16.796"
         style="fill:#622743;fill-opacity:1;fill-rule:nonzero;stroke:none"
         id="path26" />
      <path
         d="m 2028.6,1768.7 c 84.2,140.4 128.6,304.5 130.7,470.9 39.3,-200.6 -5.9,-416.5 -122.4,-584.5 0.4,39.5 0.7,79 -8.3,113.6"
         style="fill:#622743;fill-opacity:1;fill-rule:nonzero;stroke:none"
         id="path28" />
      <path
         d="m 2248.7,2107.6 c -6.3,-51.3 -15.6,-103.8 -27.5,-156.6 2.8,212.5 -30.6,424.9 -115.4,619 -118.2,270.5 -344.3,501.2 -627.5,584.6 -209.9,61.9 -430.6,40.8 -645.898,-11.3 210.298,99.6 461.398,118.2 690.498,65.3 164.6,-38.1 324,-111.7 444.2,-230.3 209.7,-207 317.5,-578.3 281.6,-870.7"
         style="fill:#89374c;fill-opacity:1;fill-rule:nonzero;stroke:none"
         id="path30" />
      <path
         d="m 2085.9,1933.1 c -1.5,-3.9 -3,-7.7 -4.6,-11.5 -126.4,-301.8 -423.2,-513.8 -769.5,-514.1 -268.7,-0.3 -507.8,127 -660.702,324.9 5.199,64.6 14.902,128.6 29,191.8 l 0.101,0.2 c 7.399,33.3 16,66.3 25.801,98.9 116,387.5 396.6,729.1 783,916.3 300.5,-190.5 513.4,-511.4 578.9,-865.4 8.5,-46.6 14.6,-93.7 18,-141.1"
         style="fill:#f9af8c;fill-opacity:1;fill-rule:nonzero;stroke:none"
         id="path32" />
      <path
         d="m 2098.7,1823.1 c 0,-257.7 -329,-476.9 -734,-454.2 -374.798,21.1 -642.2,152 -714.997,344.1 0.395,6.4 0.899,12.9 1.395,19.4 5.199,64.6 14.902,128.6 29,191.8 l 0.101,0.2 c 7.399,33.3 16,66.3 25.801,98.9 14,17.4 29.699,34.2 47.102,50.3 131.496,121.9 355.898,202.2 610.798,202.4 350.9,0.3 644.6,-151.4 717.5,-354.4 11.2,-31.7 17.3,-64.7 17.3,-98.5"
         style="fill:#f9af8c;fill-opacity:1;fill-rule:nonzero;stroke:none"
         id="path34" />
      <path
         d="m 2067.8,2074.1 c -95.2,294.8 -296.2,555.3 -559.5,719.1 -326.3,-155.6 -587.101,-412.5 -755.402,-719.7 -26.699,-48.6 -51,-98.3 -72.898,-149.2 7.402,33.3 16,66.3 25.801,98.9 116,387.5 396.599,729.1 782.999,916.3 300.6,-190.4 513.5,-511.4 579,-865.4"
         style="fill:#f7937c;fill-opacity:1;fill-rule:nonzero;stroke:none"
         id="path36" />
      <path
         d="m 926.906,1732.74 c -9.183,0 -18.566,0.62 -28.082,1.92 -82.191,11.2 -142.265,68.33 -134.191,127.59 7.144,52.41 65.195,88.93 135.371,88.93 9.18,0 18.57,-0.62 28.082,-1.92 82.184,-11.2 142.264,-68.33 134.184,-127.59 -7.15,-52.4 -65.2,-88.93 -135.364,-88.93"
         style="fill:#f68782;fill-opacity:1;fill-rule:nonzero;stroke:none"
         id="path38" />
      <path
         d="m 1837,1652.6 c -82.95,0 -150.2,48.48 -150.2,108.3 0,59.81 67.25,108.3 150.2,108.3 82.95,0 150.2,-48.49 150.2,-108.3 0,-59.82 -67.25,-108.3 -150.2,-108.3"
         style="fill:#f68782;fill-opacity:1;fill-rule:nonzero;stroke:none"
         id="path40" />
      <path
         d="m 1854.8,2189.8 c -15.2,20.6 -33.6,35.3 -53.8,46.4 -20.2,11.1 -42.1,18.4 -64.6,22.5 -22.5,4.1 -45.5,4.9 -68.5,2 -23.1,-2.8 -45.8,-9.9 -68.9,-20.9 15,20.8 38.3,35.8 63.6,43.9 25.4,8.1 52.9,9.41 79.2,4.5 26.3,-4.8 51.6,-15.8 72.4,-32.59 20.6,-16.71 37.1,-40.21 40.6,-65.81"
         style="fill:#7e3a28;fill-opacity:1;fill-rule:nonzero;stroke:none"
         id="path42" />
      <path
         d="m 951.301,2270.4 c 7.801,24.7 28,45 51.099,58 23.4,13.1 50.2,19.6 76.9,20 26.7,0.4 53.6,-5.6 77.3,-17.8 23.6,-12.2 44,-30.9 55.3,-54 -20.9,14.8 -42.1,25.5 -64.3,32.2 -22.2,6.8 -45,9.8 -67.9,9.6 -22.8,-0.3 -45.6,-3.8 -67.4,-11.3 -22.003,-7.6 -42.597,-19 -60.999,-36.7"
         style="fill:#7e3a28;fill-opacity:1;fill-rule:nonzero;stroke:none"
         id="path44" />
      <path
         d="m 1265.1,1822.8 c 11.7,-30.8 31.3,-55.8 55.1,-74.3 23.9,-18.2 52.2,-29.8 80.9,-31.4 28.7,-1.7 58.1,6.5 84,21.7 25.8,15.5 48.2,38 63.5,67.2 -3.2,-33.2 -22.8,-64.8 -50,-86.4 -27.1,-21.9 -62.9,-34.7 -99.2,-32.5 -36.3,2.2 -70.3,19 -94.6,44 -24.7,24.7 -40.4,58.4 -39.7,91.7"
         style="fill:#ba3c4a;fill-opacity:1;fill-rule:nonzero;stroke:none"
         id="path46" />
      <path
         d="m 949.504,2008 c 26.594,51 86.696,82.3 143.696,75.1 57,-7.2 107.3,-52.7 120.3,-108.7 -34.7,39.3 -85.8,63.6 -138.2,65.6 -52.3,2 -105.202,-18.3 -125.796,-32"
         style="fill:#302121;fill-opacity:1;fill-rule:nonzero;stroke:none"
         id="path48" />
      <path
         d="m 1590.6,1958.6 c 30.4,46.9 87.6,74.9 143.3,70.1 55.7,-4.7 107.3,-42 129.4,-93.3 -72.5,59.1 -181.5,68.7 -272.7,23.2"
         style="fill:#302121;fill-opacity:1;fill-rule:nonzero;stroke:none"
         id="path50" />
      <path
         d="m 1665.6,492.398 c -16.9,12.801 -37.3,21 -58.8,24.004 -69.2,-171.101 -73,-367.8 -3.3,-544.9997 49.9,73.3985 71.9,162.8987 77,251.4957 5.1,88.602 -5.8,177.301 -14.9,269.5"
         style="fill:#24121f;fill-opacity:1;fill-rule:nonzero;stroke:none"
         id="path52" />
      <path
         d="m 1665.1,276.402 c -25.8,136.996 -51.7,273.996 -77.5,410.899 -5.3,27.801 -10.6,56.097 -23.3,81.398 -12.7,25.301 -33.8,47.801 -56.7,54.403 -15.1,29.5 -38.3,56 -68.7,69.199 -30.4,13.199 -68.5,11 -93.9,-10.403 -33.5,-28.199 -36.1,-77.996 -35.2,-121.796 2.5,-120.403 11.8,-240.5 21.2,-360.602 3.2,-41.699 6.6,-83.801 19,-123.699 12.4,-39.903 34.8,-78.09 69.4,-101.699 42.8,-29.204 100.8,-32.301 148.5,-12 47.5,20.398 107.1,61.5 97.2,114.3"
         style="fill:#f7937c;fill-opacity:1;fill-rule:nonzero;stroke:none"
         id="path54" />
      <path
         d="m 1507.5,821.301 c -13.9,0.301 -27.2,-5.403 -37.1,-14.301 -10.1,-8.898 -16.3,-21.199 -18.4,-34.301 -2.2,-13.097 -1.2,-26.699 0,-40.398 1.1,-13.699 2.4,-27.301 4.2,-40.899 3.4,-27.203 8.8,-54.203 13.5,-81.3 4.9,-27.102 10.4,-54.204 15,-81.403 l 0.3,-1.597 -0.8,-1.204 c -20.9,-32.597 -30.9,-72.699 -25.6,-112.097 -4.9,19.301 -5.2,39.699 -2,59.597 3.5,19.801 10.7,39.102 20.8,56.602 l -0.5,-2.801 -16.6,81.102 c -5.6,27.097 -9.8,54.5 -13,82 -1.6,13.801 -2.9,27.597 -3.5,41.5 -0.5,13.801 -1,28 2.1,42.101 4.8,28.797 33.7,51.2 61.6,47.399"
         style="fill:#cf655d;fill-opacity:1;fill-rule:nonzero;stroke:none"
         id="path56" />
      <path
         d="m 1169.9,128 c 93.5,-9.602 179.3,59.699 207.5,132.102 28.2,72.398 17.1,148.597 23.3,223.296 4.9,60.102 21.2,119.801 26,179.903 4.8,60.097 -2.9,122.5 -47.8,179.301 5.1,32.898 -30.7,64.597 -72.6,64.289 -42,-0.289 -81.1,-32.391 -99.7,-60.09 C 1141.3,712.801 1094.4,574 1066.9,433.5 1056.6,380.699 1049,327 1056.9,274.602 1064.8,222.199 1072,138 1169.9,128"
         style="fill:#f9af8c;fill-opacity:1;fill-rule:nonzero;stroke:none"
         id="path58" />
      <path
         d="m 1375.7,831.199 c -17.2,5.102 -35.5,0 -49.2,-10.097 -14.3,-9.7 -23.9,-24.602 -30.1,-40.602 -6.2,-16.102 -9.9,-33.199 -13.3,-50.5 l -10.7,-52 c -7.5,-34.602 -14.9,-69.199 -23.2,-103.602 l -12.4,-51.597 c -4.5,-17.102 -8.6,-34.301 -13.4,-51.399 2.6,17.5 5.8,35 8.6,52.399 l 9.7,52.199 c 6.5,34.801 13.7,69.398 20.9,104.102 L 1273.9,732 c 4,17.199 7.9,34.898 15.5,51.5 7.4,16.5 18.7,32.102 34.5,41.602 15.4,9.5 35.3,13.5 51.8,6.097"
         style="fill:#cf655d;fill-opacity:1;fill-rule:nonzero;stroke:none"
         id="path60" />
      <path
         d="m 1220.6,856.898 c -7.3,-14.398 -13,-29.398 -18.3,-44.5 -5.3,-15.097 -10.3,-30.398 -14.8,-45.796 -9.1,-30.801 -17.8,-61.602 -25.6,-92.7 -8.1,-31.101 -15.3,-62.3 -22.5,-93.601 -3.6,-15.602 -6.9,-31.399 -10.1,-47.102 l -4.8,-23.597 c -1.4,-7.903 -2.9,-15.801 -4.5,-23.704 1.7,32.211 6.3,64.204 11.8,96 5.4,31.801 12.5,63.313 20.4,94.602 8.1,31.211 17.1,62.199 28,92.602 11,30.199 22.5,60.796 40.4,87.796"
         style="fill:#cf655d;fill-opacity:1;fill-rule:nonzero;stroke:none"
         id="path62" />
      <path
         d="m 1595.4,-27.3984 c 46.3,176.0974 53.8,362.1994 28.7,545.5974 193.2,-15.898 386.4,-31.797 584.3,-65.097 30,-117.704 17.3,-252.704 -61.2,-345.403 C 2086.4,35.8008 1993.5,-2.69922 1900.3,-16 c -93.2,-13.3008 -188,-3.8008 -304.9,-11.3984"
         style="fill:#481e36;fill-opacity:1;fill-rule:nonzero;stroke:none"
         id="path64" />
      <path
         d="m 1937.3,492.5 c 12.2,13.398 27,24.199 43,32.801 16,8.601 33.2,15.199 51,19.301 17.8,4.199 36.1,5.898 54.2,5.296 18.1,-0.597 36.2,-3.699 53.1,-10.398 -18,-1.602 -35.3,-3 -52.4,-5.199 -17.1,-2.199 -33.8,-5.399 -50.4,-9.199 -16.6,-3.903 -33,-8.5 -49.3,-14.102 -16.2,-5.398 -32.3,-11.898 -49.2,-18.5"
         style="fill:#2e1425;fill-opacity:1;fill-rule:nonzero;stroke:none"
         id="path66" />
      <path
         d="m 1951.4,475.199 c 18.3,4.301 37.2,5.301 55.9,4.199 18.7,-1.097 37.4,-4.199 55.5,-9.398 18.1,-5.102 35.6,-12.301 52.1,-21.199 16.5,-8.903 32,-19.699 45.3,-33.102 l -51.7,18.801 c -17,6 -34.1,11.301 -51.3,16.301 -17.2,4.898 -34.5,9.301 -52.2,13.199 l -53.6,11.199"
         style="fill:#2e1425;fill-opacity:1;fill-rule:nonzero;stroke:none"
         id="path68" />
      <path
         d="m 1103.2,-17.3984 c 18.3,167.5974 11.2,338.0004 -36,502.5974 C 861.801,467.898 655.496,460.699 445.297,460.102 425.199,409.102 405,357.5 397.203,303.199 389.398,248.902 395.199,190.898 424.102,144.301 455.602,93.5 510.496,62.1016 565.898,39.5 727.797,-26.8008 907.004,-33.8984 1103.2,-17.3984"
         style="fill:#481e36;fill-opacity:1;fill-rule:nonzero;stroke:none"
         id="path70" />
      <path
         d="M 792.797,462.398 C 766.098,459 740,455.301 714.301,450.102 688.598,444.801 663.301,438.5 638.5,430.398 613.598,422.602 589.301,413.102 565.398,402.5 541.5,391.801 517.996,379.699 494.301,367 c 18.695,19.402 40.601,35.699 63.898,49.301 23.301,13.801 48.403,24.597 74.203,33 25.899,8.097 52.598,13.801 79.602,16 27.098,2.597 54.297,2 80.793,-2.903"
         style="fill:#2e1425;fill-opacity:1;fill-rule:nonzero;stroke:none"
         id="path72" />
      <path
         d="M 813.398,458.398 769.801,421.301 C 755.602,409 742.004,396.199 728.699,383.199 c -13.203,-13.097 -26.199,-26.5 -38.797,-40.5 l -37.8,-42.898 c 5.796,18.699 14.796,36.097 25.496,52.398 10.703,16.301 23.101,31.5 37.105,45.199 13.895,13.704 29.399,25.903 45.793,36.301 16.508,10.602 34.106,19.301 52.902,24.699"
         style="fill:#2e1425;fill-opacity:1;fill-rule:nonzero;stroke:none"
         id="path74" />
      <path
         d="m 1500.9,4713.5 c 444.59,0 805,-263.25 805,-588 0,-324.74 -360.41,-588 -805,-588 -444.59,0 -805.002,263.26 -805.002,588 0,324.75 360.412,588 805.002,588"
         style="fill:#7ed3c6;fill-opacity:1;fill-rule:nonzero;stroke:none"
         id="path76" />
      <g
         id="g78"
         transform="scale(10)">
        <text
           xml:space="preserve"
           transform="matrix(1,0,0,-1,110.053,420.275)"
           style="font-variant:normal;font-weight:normal;font-size:27.1188px;font-family:FredokaOne;-inkscape-font-specification:FredokaOne-Regular;writing-mode:lr-tb;fill:#ffffff;fill-opacity:1;fill-rule:nonzero;stroke:none"
           id="text84"><tspan
             x="0 15.810261 31.973064 40.840912 57.003719"
             y="0"
             sodipodi:role="line"
             id="tspan80">Salam</tspan><tspan
             x="-13.3301 6.8734956 15.741343 31.904148 38.818699 52.540897 68.974892"
             y="32.540199"
             sodipodi:role="line"
             id="tspan82">Alaikum</tspan></text>
      </g>
      <path
         d="m 1483.4,3614.2 c 25.3,-92.8 50.6,-185.7 84.3,-284.9 37.1,81.3 74.3,162.7 111.3,240.4 -63.4,13.6 -126.7,27.1 -195.6,44.5"
         style="fill:#7ed3c6;fill-opacity:1;fill-rule:nonzero;stroke:none"
         id="path86" />
      <path
         d="m 3122.4,1205.8 c -317.7,-116.5 -355.7,-440.698 -444.5,-862.101 103,-47.5 271.8,-98.398 378,-87.801 36.2,352.403 51,584.801 66.5,949.902"
         style="fill:#3d7393;fill-opacity:1;fill-rule:nonzero;stroke:none"
         id="path88" />
      <path
         d="m 2937.7,356.48 c -81.81,8.25 -162.34,28.52 -238.18,60.141 l -3.85,-9.23 c 76.76,-32 158.24,-52.512 241.03,-60.86 l 1,9.949"
         style="fill:#5098ae;fill-opacity:1;fill-rule:nonzero;stroke:none"
         id="path90" />
      <path
         d="m 4356.5,-56.5 c -13.3,233.398 -60.1,726.398 -100.4,1053.801 -21.9,178.399 -109.5,314.199 -335,353.099 -104.5,18 -218.5,25.7 -364.2,18 -164.9,-37.3 -293.8,-89.8 -447.4,-169.3 -86.4,-44.7 -142.7,-131.7 -147.4,-228.799 C 2946,637.801 2936.2,245.602 2918,-60.3984 3207.3,-140.301 4099.3,-127.398 4356.5,-56.5"
         style="fill:#36678c;fill-opacity:1;fill-rule:nonzero;stroke:none"
         id="path92" />
      <path
         d="m 3820.5,1586.8 c 11.7,-73.9 23.5,-147.7 39.2,-230.2 -47.6,-96 -102.4,-154.3 -231.5,-205 -10.5,-4.1 -70,-150.2 -70,-150.2 0,0 -56.6,129.8 -64.6,133.1 -102.8,42.7 -137.5,84.2 -160.9,166.5 6,79.2 9.4,138.9 -0.8,217.5 163.2,12.5 326,32.8 488.6,68.3"
         style="fill:#f7937c;fill-opacity:1;fill-rule:nonzero;stroke:none"
         id="path94" />
      <path
         d="m 3922.94,1344.49 c -14.28,-120.12 -105.02,-228.17 -218.61,-260.58 l -2.03,-0.58 -1,-1.86 c -44.5,-82.591 -89.07,-165.04 -137.92,-248.54 l 4.32,-2.532 4.32,2.512 c -43.4,74.699 -86.93,149.461 -131.41,219.28 l -0.97,1.52 -1.72,0.55 c -92.31,29.58 -166.38,111.23 -186.83,206 l -9.78,-2.12 c 21.35,-98.43 97.69,-182.58 193.56,-213.4 l 1.53,4.76 -4.22,-2.68 c 44.33,-69.582 87.8,-144.238 131.19,-218.929 l 4.31,-7.422 4.33,7.41 c 48.96,83.691 93.59,166.25 138.09,248.851 l -4.4,2.37 1.38,-4.81 c 117.8,33.79 210.86,144.74 225.78,269.01 l -9.92,1.19"
         style="fill:#5098ae;fill-opacity:1;fill-rule:nonzero;stroke:none"
         id="path96" />
      <path
         d="m 4586.7,426 c -52.2,279.699 -210.9,785.9 -533.6,884 -49.4,-344.102 -11.8,-684.5 52.1,-1026.5 110.7,-1.898 337.9,82.699 481.5,142.5"
         style="fill:#3d7393;fill-opacity:1;fill-rule:nonzero;stroke:none"
         id="path98" />
      <path
         d="m 4087.63,405.422 c 162.01,14.058 321.38,57.5 468.13,127.469 l -4.31,9.031 C 4405.79,472.469 4247.57,429.332 4086.76,415.379 l 0.87,-9.957"
         style="fill:#5098ae;fill-opacity:1;fill-rule:nonzero;stroke:none"
         id="path100" />
      <path
         d="m 4265.4,1897.6 c -11.2,-7.4 -9.5,-2.8 -0.6,7.6 0.2,-2.5 0.4,-5.1 0.6,-7.6"
         style="fill:#1a242f;fill-opacity:1;fill-rule:nonzero;stroke:none"
         id="path102" />
      <path
         d="m 3204,319.898 c 25.8,137 51.7,274.004 77.5,410.903 5.3,27.801 10.6,56.097 23.3,81.398 12.7,25.301 33.8,47.801 56.7,54.403 15.1,29.5 38.3,56 68.7,69.199 30.4,13.199 68.5,11 93.9,-10.403 33.5,-28.199 36.1,-78 35.2,-121.796 -2.5,-120.403 -11.8,-240.5 -21.2,-360.602 -3.2,-41.699 -6.6,-83.801 -19,-123.699 -12.4,-39.903 -34.8,-78.102 -69.4,-101.699 -42.8,-29.204 -109.4,-49.5 -157.1,-29.204 -47.5,20.403 -98.5,78.704 -88.6,131.5"
         style="fill:#f7937c;fill-opacity:1;fill-rule:nonzero;stroke:none"
         id="path104" />
      <path
         d="m 3361.6,864.801 c 27.8,3.801 56.8,-18.602 61.6,-47.403 3.1,-14.097 2.6,-28.296 2.1,-42.097 -0.6,-13.899 -1.9,-27.699 -3.5,-41.5 -3.3,-27.602 -7.4,-55 -13,-82 l -16.6,-81.102 -0.5,2.801 c 10.1,-17.602 17.3,-36.801 20.8,-56.602 3.2,-19.898 2.9,-40.296 -2,-59.597 5.3,39.398 -4.7,79.5 -25.6,112.097 l -0.8,1.204 0.3,1.597 c 4.6,27.301 10.1,54.301 15,81.403 4.7,27.097 10.1,54.109 13.5,81.296 1.9,13.602 3.1,27.204 4.2,40.903 1.2,13.699 2.2,27.308 0,40.398 -2.1,13.102 -8.3,25.403 -18.4,34.301 -9.9,9 -23.2,14.602 -37.1,14.301"
         style="fill:#cf655d;fill-opacity:1;fill-rule:nonzero;stroke:none"
         id="path106" />
      <path
         d="m 3699.2,171.402 c -93.5,-9.601 -179.3,59.7 -207.5,132.098 -28.2,72.398 -17.1,148.602 -23.3,223.301 -4.9,60.097 -21.2,119.801 -26,179.898 -4.8,60.102 2.9,122.5 47.8,179.301 -5.1,32.898 30.7,64.602 72.6,64.301 41.9,-0.301 81.1,-32.403 99.7,-60.102 65.3,-134 112.2,-272.801 139.7,-413.308 10.3,-52.789 17.9,-106.493 10,-158.891 -7.8,-52.301 -15.1,-136.5 -113,-146.598"
         style="fill:#f9af8c;fill-opacity:1;fill-rule:nonzero;stroke:none"
         id="path108" />
      <path
         d="m 3493.4,874.699 c 16.5,7.403 36.5,3.403 51.8,-6 15.8,-9.5 27.1,-25.199 34.5,-41.597 7.7,-16.602 11.5,-34.301 15.5,-51.5 l 11.3,-51.903 c 7.2,-34.597 14.5,-69.301 20.9,-104.097 l 9.7,-52.204 c 2.9,-17.5 6.1,-34.898 8.6,-52.398 -4.8,17.102 -8.9,34.301 -13.4,51.402 L 3619.9,618 c -8.2,34.398 -15.7,69 -23.2,103.602 l -10.7,52 c -3.4,17.296 -7.1,34.398 -13.3,50.5 -6.2,16 -15.9,30.796 -30.1,40.597 -13.8,10 -32,15.102 -49.2,10"
         style="fill:#cf655d;fill-opacity:1;fill-rule:nonzero;stroke:none"
         id="path110" />
      <path
         d="m 3648.5,900.301 c 17.9,-27 29.5,-57.602 40.4,-87.801 10.9,-30.398 19.9,-61.398 28,-92.602 7.9,-31.296 15,-62.796 20.4,-94.597 5.5,-31.801 10,-63.801 11.8,-96 -1.6,7.898 -3.1,15.801 -4.5,23.699 l -4.8,23.602 c -3.2,15.699 -6.4,31.5 -10.1,47.097 -7.2,31.301 -14.5,62.5 -22.5,93.59 -7.8,31.109 -16.5,62.012 -25.6,92.711 -4.5,15.398 -9.5,30.602 -14.8,45.801 -5.3,15.199 -11,30.199 -18.3,44.5"
         style="fill:#cf655d;fill-opacity:1;fill-rule:nonzero;stroke:none"
         id="path112" />
      <path
         d="m 4257.7,360.898 c -158.1,3.602 -312,13.301 -475.5,40.602 -39.3,-71 -88.5,-136.398 -152,-221.398 155,-48.602 309.9,-97.2036 464.9,-145.8012 80.6,-25.3008 170.1,-50.1992 247.2,-15.5 63,28.3984 104,92.5002 121.5,159.3012 17.5,66.796 14.9,134.597 12,203.597 C 4402.7,366 4322.9,359.398 4257.7,360.898"
         style="fill:#f9af8c;fill-opacity:1;fill-rule:nonzero;stroke:none"
         id="path114" />
      <path
         d="m 3254.7,371.102 c -181.8,-7.903 -363.1,-20.903 -543.9,-41.704 -42,-109 15.3,-241.1988 122.6,-287.2964 86.4,-37.1016 187.1,-17.6016 273.7,19 86.6,36.5976 162.2,62.2964 254.3,121.6994 -32.7,61.801 -65.2,123.601 -106.7,188.301"
         style="fill:#f7937c;fill-opacity:1;fill-rule:nonzero;stroke:none"
         id="path116" />
      <path
         d="m 2646.43,2091.36 c 97.97,63.6 233.77,28.34 303.29,-78.77 69.53,-107.11 46.46,-245.49 -51.52,-309.09 -97.98,-63.61 -233.77,-28.34 -303.3,78.77 -69.52,107.1 -46.45,245.48 51.53,309.09"
         style="fill:#f7937c;fill-opacity:1;fill-rule:nonzero;stroke:none"
         id="path118" />
      <path
         d="m 3558.1,3130 c 461.32,0 835.3,-375.86 835.3,-839.5 0,-463.64 -373.98,-839.5 -835.3,-839.5 -461.32,0 -835.3,375.86 -835.3,839.5 0,463.64 373.98,839.5 835.3,839.5"
         style="fill:#f9af8c;fill-opacity:1;fill-rule:nonzero;stroke:none"
         id="path120" />
      <path
         d="m 2770.5,1866.6 c 0,250.5 329.2,453.21 734.9,452.9 405.7,-0.3 734.3,-203.7 734,-454.2 -0.3,-250.5 -293,-428.1 -734.9,-452.9 -405,-22.7 -734,196.5 -734,454.2"
         style="fill:#f9af8c;fill-opacity:1;fill-rule:nonzero;stroke:none"
         id="path122" />
      <path
         d="m 4186.7,2156.2 c -121.1,84.2 -216,205.6 -268.5,343.5 -85.1,-83.4 -198.6,-137.2 -317,-150.4 17.7,37.8 35.4,75.5 53.1,113.3 -180.9,-111.3 -403.2,-153.5 -612.3,-116.1 4.3,24 8.6,48 12.9,72 -48.9,-35.5 -89.7,-81.9 -118.6,-135 -9.1,33.8 -18.2,67.7 -27.4,101.5 -61.1,-71.4 -107.9,-155 -136.9,-244.4 -3.2,172.1 29.6,344.8 95.7,503.7 397.7,109.4 805.1,183.8 1215.8,222 49.7,-202.1 82,-408.4 103.2,-710.1"
         style="fill:#f7937c;fill-opacity:1;fill-rule:nonzero;stroke:none"
         id="path124" />
      <g
         id="g126">
        <g
           id="g128"
           clip-path="url(#clipPath132)">
          <path
             d="m 3798.62,1776.45 h 313.801 v 218.449 H 3798.62 Z"
             style="fill:#f68782;fill-opacity:1;fill-rule:nonzero;stroke:none"
             id="path134" />
        </g>
      </g>
      <path
         d="m 3032.2,1696.1 c -82.95,0 -150.2,48.49 -150.2,108.31 0,59.8 67.25,108.29 150.2,108.29 82.96,0 150.2,-48.49 150.2,-108.29 0,-59.82 -67.24,-108.31 -150.2,-108.31"
         style="fill:#f68782;fill-opacity:1;fill-rule:nonzero;stroke:none"
         id="path136" />
      <path
         d="m 2918,2270.4 c 9.7,30.3 33,56.4 61,73.5 28,17.5 61,26.8 94.1,28.1 33.1,1.2 66.7,-5.8 95.9,-21.2 29.2,-15 53.9,-38.6 68.3,-66.8 -24.3,20.4 -50.1,35.7 -77.7,45.4 -27.6,9.5 -56.6,13.7 -85.4,12.6 -28.8,-1 -57.4,-7.2 -84.2,-18.7 -26.8,-11.7 -51.4,-28.9 -72,-52.9"
         style="fill:#1a242f;fill-opacity:1;fill-rule:nonzero;stroke:none"
         id="path138" />
      <path
         d="m 3980,2357.4 c -25.7,20.3 -56,28 -86.3,32.8 -30.4,4.2 -61.4,4.4 -91.9,1.4 -30.6,-2.9 -60.8,-9.2 -90,-19.2 -29.2,-10.1 -57.1,-24 -83.6,-43.2 17.4,27.9 44.6,49.7 74.4,64.8 29.9,15.4 62.9,24.2 96.3,27.5 33.4,3.1 67.5,1 99.9,-8.5 16.2,-4.6 31.9,-11.3 46.3,-20.2 14.1,-9.1 27,-21 34.9,-35.4"
         style="fill:#1a242f;fill-opacity:1;fill-rule:nonzero;stroke:none"
         id="path140" />
      <path
         d="m 3628.2,1998.8 c 23,55.4 79.6,98.4 143,108.7 63.4,10.3 131.1,-12.5 171.1,-57.6 -84.1,50.5 -207.6,38.2 -314.1,-51.1"
         style="fill:#302121;fill-opacity:1;fill-rule:nonzero;stroke:none"
         id="path142" />
      <path
         d="m 3256.5,1995.7 c -44.1,48.3 -101.5,88.4 -166.5,95.3 -65,6.9 -136.9,-27.3 -158.3,-89.1 40.8,34.4 93.3,54.5 146.6,56.3 53.3,1.6 107,-15.1 178.2,-62.5"
         style="fill:#302121;fill-opacity:1;fill-rule:nonzero;stroke:none"
         id="path144" />
      <path
         d="m 3676.6,1877.5 c -128.7,-57 -271.7,-76 -407.2,-58.7 -26.9,-59.7 3.4,-135.9 54.5,-172.8 51.1,-36.9 116.7,-42 177.9,-35.1 60.6,6.8 123.2,26.2 165.6,73.4 42.5,47.3 56.8,128.2 9.2,193.2"
         style="fill:#ffffff;fill-opacity:1;fill-rule:nonzero;stroke:none"
         id="path146" />
      <path
         d="m 4406.7,2712.4 c -7.6,-80.4 -17.6,-159.4 -28.4,-233.1 -14.3,18.1 -29.1,35.4 -44.6,52.3 -169.2,184.3 -406.1,295.3 -648.4,343 -214.3,42 -433.9,38.5 -674.1,28.3 -56.1,-2.4 -113.5,-5.2 -172.2,-7.8 59.1,189.5 98,314.1 189.7,489.2 223.9,176.7 516,278.9 790.4,214.5 171.2,-40.2 313.5,-109.6 426.4,-220.3 68.1,-66.9 125.5,-148.7 172,-248.3 9.3,-128.9 2.8,-275.4 -10.8,-417.8"
         style="fill:#f9eec1;fill-opacity:1;fill-rule:nonzero;stroke:none"
         id="path148" />
      <path
         d="m 4406.7,2712.4 c -23.1,-62.1 -47.4,-122.2 -73,-180.8 -169.2,184.3 -406.1,295.3 -648.4,343 -214.3,42 -433.9,38.5 -674.1,28.3 61,173.8 126.6,346 196.7,516.2 220,123.1 486.7,160.4 729.81,98.8 109.79,-27.8 214.39,-75.6 307.9,-139.6 68.09,-66.9 125.49,-148.7 171.99,-248.3 9.2,-128.7 2.7,-275.2 -10.9,-417.6"
         style="fill:#e7d29e;fill-opacity:1;fill-rule:nonzero;stroke:none"
         id="path150" />
      <path
         d="m 4366.6,1994.8 c -28.5,-15.6 -82.5,-66.8 -101.9,-89.6 -21.1,218.1 -323.3,405.1 -322.6,768.3 -57.8,-148.3 -108.7,-185.9 -249.4,-249.9 49.4,81.8 88,170.1 114.3,262 -146.7,-237 -455.1,-268.8 -710.3,-277.5 33.7,69.2 67.5,138.4 101.3,207.6 -120.8,-70 -164.1,-128 -236.6,-233.7 -22.9,40.6 -21.1,117.8 -1.6,167.1 -106.5,-130.4 -175.9,-340.6 -175.9,-586 -53.5,85.5 -80.6,175 -93.9,277 -9.6,73.4 -12.1,153.3 -12.1,242.9 0,92.8 15.2,173.4 42.7,243.1 32.7,129.6 119.4,246.3 237.9,309 -71.5,-8.9 -142.9,-17.7 -214.4,-26.6 162.6,195.9 453.5,273.3 692.1,184.4 -35.9,61.1 -34.7,117.2 -14.4,165.3 9.2,-34.1 38.6,-59.7 70.7,-74.5 32.2,-14.8 67.6,-20.6 102,-29 109.8,-26.6 212.8,-79.9 298.6,-153.3 19.6,-16.8 38.3,-34.6 56,-53.3 77.6,-25.1 142.6,-55.4 188,-87.8 460.8,-127.9 299.2,-684.2 229.5,-965.5"
         style="fill:#1a242f;fill-opacity:1;fill-rule:nonzero;stroke:none"
         id="path152" />
      <path
         d="m 3120.4,3102.4 c 52.2,-2.7 103.4,-21 145.4,-52 -57.2,-11.3 -110.7,-40.9 -150.8,-83.3 119.8,34.9 255,12.5 357.2,-59.1 -231.6,26.4 -473.7,-71.1 -622.4,-250.6 -96.8,-116.8 -152.09,-266 -159.8,-417.3 -9.6,73.4 -12.1,153.3 -12.1,242.9 0,92.8 15.2,173.4 42.7,243.1 32.7,129.6 119.4,246.3 237.9,309 -71.5,-8.9 -142.9,-17.7 -214.4,-26.6 162.6,195.9 453.5,273.3 692.1,184.4 -35.9,61.1 -34.7,117.2 -14.4,165.3 9.2,-34.1 38.6,-59.7 70.7,-74.5 32.2,-14.8 67.6,-20.6 102,-29 109.8,-26.6 212.8,-79.9 298.61,-153.3 -119.81,58.2 -249.31,96.1 -381.51,111.7 26.3,-34.9 52.6,-69.7 78.9,-104.5 -153.7,37.4 -317.2,35.3 -470.1,-6.2"
         style="fill:#283946;fill-opacity:1;fill-rule:nonzero;stroke:none"
         id="path154" />
      <path
         d="m 4207.43,2059.25 c 69.72,106.98 205.57,142 303.43,78.22 97.86,-63.78 120.67,-202.2 50.96,-309.18 -69.72,-106.97 -205.57,-141.99 -303.43,-78.21 -97.86,63.77 -120.68,202.2 -50.96,309.17"
         style="fill:#f9af8c;fill-opacity:1;fill-rule:nonzero;stroke:none"
         id="path156" />
      <path
         d="m 3269,4713.5 c 444.59,0 805,-263.25 805,-588 0,-324.74 -360.41,-588 -805,-588 -444.59,0 -805,263.26 -805,588 0,324.75 360.41,588 805,588"
         style="fill:#7ed3c6;fill-opacity:1;fill-rule:nonzero;stroke:none"
         id="path158" />
      <g
         id="g160"
         transform="scale(10)">
        <text
           xml:space="preserve"
           transform="matrix(1,0,0,-1,286.868,420.275)"
           style="font-variant:normal;font-weight:normal;font-size:27.1188px;font-family:FredokaOne;-inkscape-font-specification:FredokaOne-Regular;writing-mode:lr-tb;fill:#ffffff;fill-opacity:1;fill-rule:nonzero;stroke:none"
           id="text166"><tspan
             x="0 15.810261 31.973064 40.840912 57.003719"
             y="0"
             sodipodi:role="line"
             id="tspan162">Salam</tspan><tspan
             x="-13.3301 6.8734956 15.741343 31.904148 38.81871 52.540909 68.974899"
             y="32.540199"
             sodipodi:role="line"
             id="tspan164">Alaikum</tspan></text>
      </g>
      <path
         d="m 3108.1,3605.8 c 35.8,-89.3 71.5,-178.7 116.3,-273.4 27.6,85 55.2,170.1 83.1,251.6 -64.5,6.2 -129,12.4 -199.4,21.8"
         style="fill:#7ed3c6;fill-opacity:1;fill-rule:nonzero;stroke:none"
         id="path168" />
    </g>
  </g>
</svg>
